<svg width="670" height="194" viewBox="0 0 670 194" fill="none" xmlns="http://www.w3.org/2000/svg">
<path d="M137.088 47.9232C138.112 52.8384 139.238 57.9584 140.467 63.2832C141.901 68.4032 142.618 73.6256 142.618 78.9504C143.437 81.408 143.846 84.3776 143.846 87.8592C144.051 91.136 144.154 93.9008 144.154 96.1536C144.154 98.816 144.051 101.171 143.846 103.219C143.846 105.062 143.437 107.418 142.618 110.285C142.618 112.742 142.515 115.61 142.31 118.886C142.106 122.163 141.389 125.03 140.16 127.488C139.546 128.922 139.238 130.765 139.238 133.018C139.238 135.27 138.726 137.523 137.702 139.776L134.016 148.378C132.582 151.859 130.944 155.341 129.101 158.822C127.462 162.099 125.824 164.864 124.186 167.117C123.776 167.936 122.957 168.96 121.728 170.189C120.704 171.418 119.578 172.749 118.349 174.182C117.12 175.616 115.789 176.947 114.355 178.176C113.126 179.405 112.102 180.429 111.283 181.248C109.44 183.091 107.597 184.73 105.754 186.163C103.91 187.802 101.76 189.133 99.3024 190.157C98.4832 190.566 97.664 190.874 96.8448 191.078C96.0256 191.488 95.104 191.795 94.08 192C91.4176 192.41 88.96 192.717 86.7072 192.922C84.4544 193.331 82.2016 193.638 79.9488 193.843C78.5152 193.843 76.5696 193.843 74.112 193.843C71.8592 193.843 69.504 193.741 67.0464 193.536C64.5888 193.536 62.336 193.434 60.288 193.229C58.24 193.024 56.9088 192.819 56.2944 192.614C52.608 191.181 49.1264 189.747 45.8496 188.314C42.7776 186.88 39.9104 184.73 37.248 181.862L24.3456 171.11C19.84 167.424 16.256 163.226 13.5936 158.515C10.9312 153.6 8.7808 148.48 7.1424 143.155C6.1184 140.698 5.504 138.445 5.2992 136.397C5.0944 134.349 4.48 132.506 3.456 130.867C2.432 124.928 1.5104 119.501 0.6912 114.586C0.0768 109.67 -0.128 104.55 0.0768 99.2256C0.2816 96.768 0.384 94.0032 0.384 90.9312C0.384 87.8592 0.5888 84.8896 0.9984 82.0224C1.2032 81.408 1.5104 79.872 1.92 77.4144C2.3296 74.9568 2.7392 72.3968 3.1488 69.7344C3.5584 66.8672 3.968 64.2048 4.3776 61.7472C4.7872 59.0848 5.0944 57.4464 5.2992 56.832C7.1424 50.8928 8.9856 45.568 10.8288 40.8576C12.8768 35.9424 15.5392 31.6416 18.816 27.9552L27.7248 18.1248C28.7488 17.1008 29.9776 16.1792 31.4112 15.36C33.0496 14.336 34.4832 13.4144 35.712 12.5952L42.4704 8.6016C44.5184 7.16799 47.488 5.93919 51.3792 4.91519C55.2704 3.6864 58.5472 2.86719 61.2096 2.45759C63.872 2.04799 66.7392 1.7408 69.8112 1.536C73.088 1.3312 76.3648 1.2288 79.6416 1.2288C82.5088 1.2288 84.864 1.536 86.7072 2.15039C88.7552 2.76479 91.008 3.4816 93.4656 4.3008C94.2848 4.5056 95.5136 4.9152 97.152 5.5296C98.7904 5.9392 100.531 6.65599 102.374 7.67999C104.422 8.49919 106.47 9.6256 108.518 11.0592C110.566 12.288 112.307 13.6192 113.741 15.0528C114.97 16.4864 116.71 18.0224 118.963 19.6608C121.421 21.0944 123.162 22.7328 124.186 24.576C124.595 25.3952 125.107 26.2144 125.722 27.0336C126.541 27.8528 127.258 28.672 127.872 29.4912C129.51 31.9488 131.456 35.0208 133.709 38.7072C135.962 42.3936 137.088 45.4656 137.088 47.9232ZM72.8832 117.043C73.7024 117.043 74.2144 116.838 74.4192 116.429C74.624 116.019 75.2384 115.712 76.2624 115.507C77.696 115.302 78.72 114.688 79.3344 113.664C79.9488 112.435 80.768 111.309 81.792 110.285C82.6112 105.779 83.0208 101.683 83.0208 97.9968C83.2256 94.3104 83.328 90.2144 83.328 85.7088C83.328 84.0704 82.9184 82.5344 82.0992 81.1008C81.28 79.4624 79.9488 78.2336 78.1056 77.4144C76.2624 76.3904 74.8288 75.8784 73.8048 75.8784C72.7808 75.8784 71.4496 76.3904 69.8112 77.4144C69.4016 77.4144 68.992 77.5168 68.5824 77.7216C68.1728 77.9264 67.7632 78.1312 67.3536 78.336L66.1248 78.9504C65.1008 80.7936 64.1792 82.5344 63.36 84.1728C62.5408 85.8112 62.1312 87.4496 62.1312 89.088V104.448C62.5408 107.725 63.36 110.285 64.5888 112.128C65.8176 113.971 67.5584 115.61 69.8112 117.043H72.8832Z" fill="#3B200A"/>
<path d="M141.624 164.045C141.829 162.816 141.829 161.587 141.624 160.358C141.419 159.13 141.522 157.798 141.931 156.365C142.136 155.955 142.238 155.238 142.238 154.214C142.443 153.19 142.443 152.371 142.238 151.757L141.317 142.234C141.112 140.595 141.112 138.957 141.317 137.318C141.522 135.475 141.624 133.632 141.624 131.789C141.419 130.97 141.317 130.253 141.317 129.638C141.522 128.819 141.624 128 141.624 127.181C141.419 124.928 141.522 122.573 141.931 120.115C142.546 117.658 142.648 115.302 142.238 113.05C142.238 112.845 142.238 112.333 142.238 111.514C142.238 110.694 142.238 109.875 142.238 109.056C142.238 108.032 142.238 107.11 142.238 106.291C142.443 105.472 142.546 104.96 142.546 104.755C142.75 100.864 142.75 96.768 142.546 92.4672C142.546 87.7568 142.546 83.5584 142.546 79.872C142.546 75.9808 142.75 72.704 143.16 70.0416C143.365 69.0176 143.467 67.7888 143.467 66.3552C143.467 64.7168 143.467 63.0784 143.467 61.44C143.262 59.1872 143.058 56.7296 142.853 54.0672C142.853 51.4048 142.853 48.7424 142.853 46.08C142.853 41.3696 142.75 37.2736 142.546 33.792C142.546 30.1056 142.443 25.9072 142.238 21.1968C142.238 19.5584 142.136 18.0224 141.931 16.5888C141.726 14.9504 141.726 13.312 141.931 11.6736C141.931 11.264 141.931 10.24 141.931 8.6016C141.931 6.9632 142.034 5.9392 142.238 5.5296C142.238 5.32479 142.341 5.11999 142.546 4.91519C143.16 4.3008 143.672 3.9936 144.082 3.9936H166.2C169.067 3.9936 171.934 3.9936 174.802 3.9936C177.874 3.9936 180.638 4.096 183.096 4.3008C185.349 4.5056 187.704 5.0176 190.162 5.8368C192.824 6.656 194.974 7.3728 196.613 7.98719C201.938 9.83039 205.624 11.264 207.672 12.288C209.925 13.312 212.075 14.6432 214.123 16.2816C215.966 17.7152 217.912 19.0464 219.96 20.2752C222.008 21.504 224.056 22.9376 226.104 24.576C228.152 26.0096 230.098 27.8528 231.941 30.1056C233.989 32.1536 235.832 34.816 237.47 38.0928C238.699 40.5504 240.133 43.1104 241.771 45.7728C243.614 48.4352 244.434 51.2 244.229 54.0672C245.253 57.1392 245.765 59.8016 245.765 62.0544C245.97 64.3072 246.584 66.3552 247.608 68.1984C248.632 72.704 249.144 77.4144 249.144 82.3296C249.144 87.2448 248.632 91.7504 247.608 95.8464C247.813 98.7136 247.506 101.581 246.686 104.448C246.072 107.315 245.662 110.182 245.458 113.05C245.253 115.507 244.946 117.453 244.536 118.886C244.331 120.32 243.922 121.549 243.307 122.573C242.898 123.597 242.386 124.621 241.771 125.645C241.362 126.669 240.85 128 240.235 129.638C240.03 130.253 239.518 131.277 238.699 132.71C237.88 133.939 236.958 135.27 235.934 136.704C235.115 138.138 234.194 139.571 233.17 141.005C232.35 142.234 231.838 143.155 231.634 143.77C230.405 147.251 228.766 149.811 226.718 151.45C224.875 152.883 222.418 155.238 219.346 158.515C218.731 159.13 217.707 160.154 216.274 161.587C215.045 162.816 213.611 164.147 211.973 165.581C210.539 167.014 209.106 168.346 207.672 169.574C206.238 170.598 205.112 171.418 204.293 172.032C203.474 172.442 202.04 173.261 199.992 174.49C198.149 175.514 196.101 176.64 193.848 177.869C191.595 179.098 189.445 180.224 187.397 181.248C185.349 182.272 184.018 182.784 183.403 182.784C181.355 182.989 178.693 183.194 175.416 183.398C172.139 183.603 168.76 183.808 165.278 184.013C161.797 184.218 158.418 184.32 155.141 184.32C151.864 184.525 149.202 184.627 147.154 184.627H143.774C143.16 184.218 142.75 183.808 142.546 183.398C142.341 182.989 142.136 182.579 141.931 182.17C141.726 181.76 141.624 181.453 141.624 181.248V164.045ZM164.664 122.573C164.459 127.488 164.357 133.222 164.357 139.776C164.357 146.33 164.459 152.064 164.664 156.979C170.603 156.57 175.518 155.648 179.41 154.214C183.301 152.576 187.397 150.118 191.698 146.842C194.565 144.794 196.51 142.643 197.534 140.39C198.763 137.933 199.89 135.475 200.914 133.018C201.938 131.174 202.757 129.024 203.371 126.566C204.19 124.109 205.01 121.754 205.829 119.501C206.238 118.272 206.75 116.531 207.365 114.278C208.184 112.026 208.594 110.08 208.594 108.442C208.594 107.418 208.798 105.472 209.208 102.605C209.822 99.5328 210.027 97.4848 209.822 96.4608V90.9312C209.822 87.2448 209.925 83.2512 210.13 78.9504C210.539 74.6496 210.437 69.3248 209.822 62.976V61.1328C209.413 55.808 207.979 51.4048 205.522 47.9232C203.064 44.4416 200.094 40.6528 196.613 36.5568C194.974 34.5088 193.029 32.9728 190.776 31.9488C188.728 30.9248 185.042 29.4912 179.717 27.648C178.078 27.0336 175.826 26.624 172.958 26.4192C170.091 26.0096 167.531 25.7024 165.278 25.4976C164.869 26.3168 164.664 26.8288 164.664 27.0336V30.1056C164.254 32.3584 164.05 35.2256 164.05 38.7072C164.254 41.984 164.357 45.056 164.357 47.9232C164.357 51.4048 164.459 55.3984 164.664 59.904C164.869 64.4096 164.766 69.0176 164.357 73.728C164.357 74.752 164.254 75.8784 164.05 77.1072C164.05 78.336 164.05 79.4624 164.05 80.4864C164.254 83.1488 164.254 85.8112 164.05 88.4736C163.845 91.136 164.05 93.9008 164.664 96.768C164.254 101.069 164.152 105.37 164.357 109.67C164.766 113.971 164.869 118.272 164.664 122.573Z" fill="#3B200A"/>
<path d="M259.778 145.306C261.212 141.21 262.646 137.216 264.079 133.325C265.718 129.229 267.254 125.133 268.687 121.037C269.711 117.965 271.042 114.893 272.681 111.821C274.319 108.749 275.753 105.984 276.982 103.526C278.006 100.045 279.03 97.28 280.054 95.232C281.282 92.9792 281.999 91.5456 282.204 90.9312C282.204 90.5216 282.614 89.4976 283.433 87.8592C284.457 86.2208 285.583 83.5584 286.812 79.872C287.426 78.0288 287.938 76.0832 288.348 74.0352C288.962 71.9872 289.679 70.0416 290.498 68.1984L297.871 50.3808C298.69 48.128 299.202 46.4896 299.407 45.4656C299.817 44.2368 300.124 43.2128 300.329 42.3936C300.534 41.5744 300.738 40.6528 300.943 39.6288C301.148 38.6048 301.762 36.9664 302.786 34.7136C303.81 32.4608 304.63 30.3104 305.244 28.2624C306.063 26.2144 306.985 24.064 308.009 21.8112C308.418 20.5824 308.828 19.3536 309.238 18.1248C309.647 16.896 310.057 15.6672 310.466 14.4384C311.081 12.8 311.593 11.3664 312.002 10.1376C312.412 8.9088 312.822 7.4752 313.231 5.8368C313.641 5.42719 313.948 4.91519 314.153 4.3008C314.358 3.4816 314.767 2.56 315.382 1.536C316.61 0.716797 317.634 0.307196 318.454 0.307196C319.273 0.102399 320.092 0 320.911 0H335.042C335.452 0.819202 335.657 1.6384 335.657 2.45759C335.657 3.07199 335.862 3.78879 336.271 4.608L337.5 9.21599L338.422 11.6736L341.801 21.1968L347.33 36.864L349.481 40.8576C349.89 41.2672 350.3 42.1888 350.71 43.6224C351.119 44.8512 351.734 46.4896 352.553 48.5376C353.577 51.2 354.601 54.272 355.625 57.7536C356.854 61.0304 357.98 64.3072 359.004 67.584C360.438 72.704 361.564 76.4928 362.383 78.9504C363.407 81.408 364.431 83.968 365.455 86.6304C366.07 87.4496 366.479 88.3712 366.684 89.3952C366.889 90.4192 367.196 91.4432 367.606 92.4672L371.599 105.062L376.822 116.122C377.436 117.965 378.05 119.808 378.665 121.651C379.484 123.29 380.406 124.928 381.43 126.566C383.068 130.662 384.399 134.451 385.423 137.933C386.447 141.21 387.778 144.896 389.417 148.992C390.236 150.835 391.055 152.576 391.874 154.214C392.898 155.853 393.718 157.594 394.332 159.437C394.742 160.461 395.151 161.485 395.561 162.509C395.97 163.533 396.38 164.557 396.79 165.581C397.814 167.424 398.633 169.37 399.247 171.418C400.066 173.261 400.988 175.309 402.012 177.562C402.422 178.79 402.934 180.019 403.548 181.248C404.162 182.477 404.572 183.603 404.777 184.627C403.753 184.627 402.729 184.525 401.705 184.32C400.681 184.115 399.759 184.013 398.94 184.013H393.718C391.874 184.013 390.236 184.013 388.802 184.013C387.369 184.218 386.14 184.32 385.116 184.32C384.092 181.862 382.556 179.507 380.508 177.254C378.665 174.797 376.719 171.827 374.671 168.346C374.262 167.322 373.852 166.4 373.442 165.581C373.033 164.762 372.623 163.942 372.214 163.123C371.804 161.894 370.575 160.154 368.527 157.901C366.684 155.648 365.66 153.907 365.455 152.678C363.817 150.835 362.588 149.402 361.769 148.378C361.154 147.149 360.335 146.022 359.311 144.998C358.492 144.998 357.468 144.998 356.239 144.998C355.01 144.794 353.884 144.589 352.86 144.384C351.631 144.179 350.3 144.077 348.866 144.077H341.494C340.47 144.077 339.343 144.179 338.114 144.384C337.09 144.384 335.452 144.486 333.199 144.691C330.946 144.691 327.874 144.794 323.983 144.998C320.092 144.998 314.87 144.998 308.316 144.998H306.166C304.527 144.998 303.196 145.203 302.172 145.613C301.353 145.818 300.124 145.613 298.486 144.998C297.871 144.589 296.335 144.486 293.878 144.691C291.625 144.896 290.089 145.101 289.27 145.306L285.276 145.613L283.74 147.763C283.33 148.992 282.614 150.426 281.59 152.064C280.566 153.702 279.542 155.341 278.518 156.979C277.494 158.618 276.47 160.256 275.446 161.894C274.626 163.533 274.012 164.864 273.602 165.888L271.452 171.418L263.772 185.549C263.362 186.368 262.748 186.778 261.929 186.778C261.11 186.778 260.495 186.982 260.086 187.392H244.418C243.599 186.573 243.19 186.061 243.19 185.856C243.19 185.651 243.599 185.037 244.418 184.013C244.418 183.194 244.726 181.965 245.34 180.326C245.954 178.893 246.262 177.766 246.262 176.947C247.286 175.309 248.105 173.67 248.719 172.032C249.538 170.189 250.358 168.448 251.177 166.81L259.778 145.306ZM324.29 69.12C323.266 69.5296 322.55 70.0416 322.14 70.656C321.73 71.2704 321.321 71.9872 320.911 72.8064C320.092 75.6736 318.966 78.5408 317.532 81.408C316.303 84.0704 315.074 86.8352 313.846 89.7024C312.822 91.7504 311.798 93.696 310.774 95.5392C309.75 97.1776 308.828 99.0208 308.009 101.069C306.166 105.165 304.322 109.261 302.479 113.357C300.636 117.248 298.588 121.139 296.335 125.03H298.178C299.817 125.03 301.25 125.133 302.479 125.338C303.913 125.542 305.346 125.44 306.78 125.03C308.009 124.621 309.135 124.518 310.159 124.723C311.388 124.928 312.514 125.03 313.538 125.03C317.02 125.03 320.604 125.03 324.29 125.03C327.977 124.826 332.073 124.928 336.578 125.338C338.831 125.542 340.879 125.542 342.722 125.338C344.77 125.133 346.818 125.03 348.866 125.03H351.631C351.426 124.211 351.119 123.597 350.71 123.187C350.505 122.573 350.198 121.958 349.788 121.344C348.969 119.706 348.047 118.272 347.023 117.043C346.204 115.814 345.487 114.278 344.873 112.435L334.121 90.9312C333.711 89.9072 333.302 88.576 332.892 86.9376L324.29 69.12Z" fill="#3B200A"/>
<path d="M462.499 1.84319C464.547 1.02399 467.619 0.819196 471.715 1.2288C475.811 1.6384 479.088 1.84319 481.546 1.84319C482.979 1.84319 484.822 1.94559 487.075 2.15039C489.533 2.15039 492.093 2.35519 494.755 2.7648C497.418 2.9696 499.875 3.1744 502.128 3.37919C504.586 3.37919 506.429 3.37919 507.658 3.37919C509.501 3.37919 512.061 3.48159 515.338 3.68639C518.614 3.68639 521.072 4.09599 522.71 4.91519C523.53 5.3248 525.27 5.7344 527.933 6.14399C530.8 6.34879 532.541 6.5536 533.155 6.7584C534.179 6.7584 534.794 6.8608 534.998 7.0656C535.203 7.0656 535.715 7.4752 536.534 8.2944C536.534 10.3424 536.227 12.288 535.613 14.1312C535.203 15.7696 534.998 17.408 534.998 19.0464C533.565 19.0464 532.029 19.1488 530.39 19.3536C528.752 19.5584 527.318 19.7632 526.09 19.968C524.042 20.3776 522.403 20.5824 521.174 20.5824C520.15 20.3776 518.307 20.2752 515.645 20.2752C513.187 20.2752 510.525 20.3776 507.658 20.5824C504.995 20.7872 502.538 20.992 500.285 21.1968C498.032 21.4016 496.086 21.6064 494.448 21.8112C493.014 22.016 492.195 22.1184 491.99 22.1184C489.738 22.528 486.768 23.1424 483.082 23.9616C479.395 24.7808 475.606 25.8048 471.715 27.0336C467.824 28.0576 464.24 29.2864 460.963 30.72C457.686 32.1536 455.434 33.5872 454.205 35.0208C452.362 37.6832 450.518 39.8336 448.675 41.472C447.037 42.9056 445.808 45.056 444.989 47.9232C444.579 48.7424 444.374 50.176 444.374 52.224C444.374 54.0672 444.374 56.1152 444.374 58.368C444.579 60.416 444.886 62.464 445.296 64.512C445.706 66.56 446.218 68.096 446.832 69.12C448.47 70.9632 449.802 72.8064 450.826 74.6496C451.85 76.4928 452.669 77.6192 453.283 78.0288C454.717 78.848 456.458 79.872 458.506 81.1008C460.758 82.3296 463.011 83.456 465.264 84.48C465.674 84.6848 466.902 84.992 468.95 85.4016C471.203 85.6064 473.763 86.1184 476.63 86.9376C478.269 87.3472 479.293 87.6544 479.702 87.8592C480.112 88.064 481.034 88.3712 482.467 88.7808C483.491 89.1904 484.208 89.4976 484.618 89.7024C485.027 89.9072 485.744 90.2144 486.768 90.624C487.997 91.0336 489.328 91.4432 490.762 91.8528C492.4 92.0576 493.322 92.16 493.526 92.16C495.165 92.16 496.803 92.4672 498.442 93.0816C500.285 93.4912 502.026 93.696 503.664 93.696C506.531 94.5152 509.194 95.1296 511.651 95.5392C514.109 95.9488 516.669 97.0752 519.331 98.9184C520.765 99.328 522.301 99.84 523.939 100.454C525.578 101.069 526.909 101.683 527.933 102.298C528.547 102.707 529.674 103.424 531.312 104.448C533.155 105.267 534.998 106.291 536.842 107.52C538.685 108.749 540.426 110.08 542.064 111.514C543.702 112.947 544.726 114.176 545.136 115.2C547.184 118.477 548.618 121.856 549.437 125.338C550.256 128.614 550.666 131.994 550.666 135.475C550.666 136.499 550.461 137.83 550.051 139.469C549.846 141.107 549.642 142.438 549.437 143.462L547.901 152.064C547.491 153.088 546.57 154.931 545.136 157.594C543.702 160.256 542.781 161.792 542.371 162.202C542.166 162.611 541.654 163.328 540.835 164.352C540.016 165.171 539.094 166.093 538.07 167.117C537.251 167.936 536.432 168.755 535.613 169.574C534.794 170.189 534.282 170.598 534.077 170.803C532.643 172.032 530.39 173.67 527.318 175.718C524.451 177.766 521.277 179.814 517.795 181.862C514.518 184.115 511.242 185.958 507.965 187.392C504.893 189.03 502.333 189.85 500.285 189.85C499.875 190.259 499.363 190.362 498.749 190.157C498.134 190.157 497.52 190.362 496.906 190.771C494.653 190.771 492.502 190.874 490.454 191.078C488.406 191.488 485.642 191.59 482.16 191.386C479.088 191.181 476.118 191.181 473.251 191.386C470.589 191.795 467.619 191.898 464.342 191.693C462.704 191.693 460.246 191.693 456.97 191.693C453.693 191.693 450.211 191.59 446.525 191.386C442.838 191.386 439.254 191.283 435.773 191.078C432.496 190.874 429.834 190.464 427.786 189.85C427.581 189.85 426.864 189.747 425.635 189.542C424.611 189.338 423.382 189.133 421.949 188.928C420.72 188.928 419.491 188.826 418.262 188.621C417.034 188.416 416.112 188.314 415.498 188.314C413.859 188.109 411.402 187.802 408.125 187.392C405.053 186.982 402.902 186.573 401.674 186.163C400.854 185.754 399.933 185.139 398.909 184.32C398.09 183.706 397.68 182.886 397.68 181.862C397.27 181.043 396.656 179.507 395.837 177.254C395.222 174.797 394.608 172.339 393.994 169.882C393.379 167.219 392.867 164.864 392.458 162.816C392.253 160.768 392.355 159.744 392.765 159.744C396.246 160.563 399.728 161.382 403.21 162.202C406.896 162.816 410.992 163.533 415.498 164.352C418.979 164.352 422.461 164.762 425.942 165.581C429.424 166.195 433.418 166.502 437.923 166.502C439.562 166.502 441.302 166.4 443.146 166.195C444.989 165.786 447.344 165.376 450.211 164.966C450.826 164.762 451.44 164.659 452.054 164.659C452.669 164.659 453.181 164.557 453.59 164.352C456.662 164.352 460.246 163.43 464.342 161.587C468.438 159.539 471.613 158.003 473.866 156.979C474.07 156.979 474.582 156.672 475.402 156.058C476.426 155.443 477.45 154.726 478.474 153.907C479.498 152.883 480.419 151.962 481.238 151.142C482.262 150.323 482.877 149.709 483.082 149.299L488.918 140.39C489.328 139.366 489.84 138.24 490.454 137.011C491.274 135.578 491.888 134.349 492.298 133.325C493.526 130.253 493.526 126.362 492.298 121.651C491.069 120.627 490.045 119.501 489.226 118.272C488.611 117.043 487.69 115.712 486.461 114.278C485.437 112.64 484.208 111.411 482.774 110.592C481.341 109.568 479.805 108.646 478.166 107.827C475.299 106.803 472.637 105.882 470.179 105.062C467.722 104.038 465.674 103.526 464.035 103.526C461.168 102.707 458.813 102.195 456.97 101.99C455.331 101.786 453.693 101.274 452.054 100.454C449.392 99.6352 447.037 99.1232 444.989 98.9184C443.146 98.7136 441.405 98.0992 439.766 97.0752C437.104 97.0752 434.749 96.768 432.701 96.1536C430.858 95.3344 428.502 94.5152 425.635 93.696C424.611 93.0816 423.485 92.4672 422.256 91.8528C421.027 91.2384 420.106 90.7264 419.491 90.3168C416.624 88.064 414.166 86.2208 412.118 84.7872C410.07 83.3536 407.92 81.2032 405.667 78.336C403.619 75.6736 402.186 73.9328 401.366 73.1136C400.547 72.0896 399.523 70.3488 398.294 67.8912C397.885 66.8672 397.475 65.536 397.066 63.8976C396.656 62.0544 396.349 60.3136 396.144 58.6752C395.939 56.832 395.734 55.1936 395.53 53.76C395.53 52.1216 395.53 50.9952 395.53 50.3808C395.53 47.7184 395.632 45.568 395.837 43.9296C396.042 42.2912 396.246 40.5504 396.451 38.7072C396.656 37.0688 397.168 35.328 397.987 33.4848C398.806 31.6416 399.728 30.1056 400.752 28.8768C403.005 24.7808 405.565 21.9136 408.432 20.2752C411.299 18.432 414.576 16.1792 418.262 13.5168C419.082 12.9024 420.31 12.1856 421.949 11.3664C423.792 10.3424 425.635 9.4208 427.478 8.6016C429.526 7.7824 431.472 7.06559 433.315 6.45119C435.158 5.8368 436.694 5.3248 437.923 4.91519C439.562 4.91519 440.995 4.71039 442.224 4.3008C443.453 3.6864 444.989 3.37919 446.832 3.37919C448.47 3.37919 449.699 3.27679 450.518 3.072C451.542 2.8672 452.874 2.7648 454.512 2.7648C455.536 2.7648 456.56 2.8672 457.584 3.072C458.813 3.072 460.451 2.6624 462.499 1.84319Z" fill="#CF6D30"/>
<path d="M622.762 185.549C621.738 185.549 620.816 185.446 619.997 185.242C619.178 185.242 618.358 185.139 617.539 184.934C616.925 184.934 616.413 184.934 616.003 184.934C613.955 185.139 612.214 185.242 610.781 185.242C609.552 185.242 608.323 185.139 607.094 184.934C605.866 184.73 604.637 184.422 603.408 184.013C602.179 183.603 600.643 182.989 598.8 182.17C597.366 181.35 595.728 180.736 593.885 180.326C592.042 180.122 590.403 179.507 588.97 178.483C586.512 176.64 583.747 175.104 580.675 173.875C577.808 172.442 575.146 170.803 572.688 168.96C572.278 168.55 571.766 168.141 571.152 167.731C570.538 167.117 570.026 166.502 569.616 165.888C567.568 164.454 565.622 163.123 563.779 161.894C562.141 160.461 560.605 158.822 559.171 156.979C558.352 156.16 557.123 154.624 555.485 152.371C554.051 149.914 552.515 147.354 550.877 144.691C549.443 142.029 548.112 139.469 546.883 137.011C545.859 134.554 545.347 132.813 545.347 131.789C545.347 128.717 544.733 125.747 543.504 122.88C542.275 120.013 541.661 117.043 541.661 113.971C541.661 113.766 541.661 112.845 541.661 111.206C541.661 109.568 541.661 107.622 541.661 105.37C541.661 102.912 541.661 100.25 541.661 97.3824C541.661 94.5152 541.661 91.8528 541.661 89.3952C541.866 86.3232 542.07 83.7632 542.275 81.7152C542.48 79.4624 542.685 78.2336 542.89 78.0288C545.142 68.1984 547.498 59.2896 549.955 51.3024C552.618 43.3152 556.918 36.0448 562.858 29.4912C564.496 26.0096 567.056 23.552 570.538 22.1184C573.2 20.48 575.76 18.8416 578.218 17.2032C580.675 15.36 583.338 13.6192 586.205 11.9808C589.072 10.752 591.939 9.728 594.806 8.9088C597.878 8.08959 600.336 7.27039 602.179 6.45119C605.456 6.24639 608.63 5.632 611.702 4.608C614.979 3.584 618.051 3.072 620.918 3.072C623.376 3.072 626.243 3.1744 629.52 3.37919C632.797 3.37919 635.664 3.89119 638.122 4.91519C641.398 5.3248 644.675 6.144 647.952 7.3728C651.434 8.3968 654.506 9.93279 657.168 11.9808C658.397 13.0048 659.626 13.7216 660.854 14.1312C662.083 14.5408 663.21 14.9504 664.234 15.36V20.2752C664.234 21.2992 664.234 22.528 664.234 23.9616C664.438 25.3952 664.541 26.5216 664.541 27.3408C664.541 28.9792 664.336 30.208 663.926 31.0272C663.517 31.4368 663.312 32.0512 663.312 32.8704C663.312 33.4848 663.107 33.792 662.698 33.792H662.083C661.469 33.792 660.854 33.4848 660.24 32.8704C659.216 32.256 658.192 31.9488 657.168 31.9488C656.144 31.744 655.222 31.5392 654.403 31.3344C653.174 31.1296 652.15 30.9248 651.331 30.72C650.512 30.3104 649.283 30.1056 647.645 30.1056C646.621 30.1056 645.494 30.1056 644.266 30.1056C643.037 30.1056 641.808 30.208 640.579 30.4128C638.941 30.6176 636.688 30.72 633.821 30.72C631.158 30.5152 629.315 30.5152 628.291 30.72C626.858 30.9248 625.629 31.232 624.605 31.6416C623.786 32.0512 622.966 32.4608 622.147 32.8704C620.304 33.8944 618.666 34.816 617.232 35.6352C615.798 36.4544 614.262 37.376 612.624 38.4C608.323 41.8816 604.432 45.6704 600.95 49.7664C596.035 55.7056 592.349 61.5424 589.891 67.2768C587.434 72.8064 586.205 79.36 586.205 86.9376V105.677L593.27 129.638C593.68 132.096 594.602 134.246 596.035 136.09C597.469 137.933 598.698 139.878 599.722 141.926C603.203 145.408 606.275 148.173 608.938 150.221C611.805 152.064 614.672 154.01 617.539 156.058C619.178 156.877 621.123 157.696 623.376 158.515C625.629 159.13 627.574 159.949 629.213 160.973C630.442 160.973 631.978 161.28 633.821 161.894C635.869 162.509 639.555 162.816 644.88 162.816H655.325C656.963 162.816 658.294 162.816 659.318 162.816C660.547 162.611 661.674 161.997 662.698 160.973H664.234L669.763 176.64C667.92 177.664 666.179 178.483 664.541 179.098C663.107 179.712 661.469 180.429 659.626 181.248C656.554 182.067 653.789 182.682 651.331 183.091C648.874 183.706 646.211 184.525 643.344 185.549H622.762Z" fill="#CF6D30"/>
</svg>
